<?xml version="1.0" encoding="utf-8"?>
<!-- Generator: Adobe Illustrator 24.1.2, SVG Export Plug-In . SVG Version: 6.00 Build 0)  -->
<svg version="1.1" xmlns="http://www.w3.org/2000/svg" xmlns:xlink="http://www.w3.org/1999/xlink" x="0px" y="0px"
	 viewBox="0 0 113 24" style="enable-background:new 0 0 113 24;" xml:space="preserve">
<style type="text/css">
	.st0{display:none;}
	.st1{display:inline;fill:#5D0000;}
	.st2{fill:#4C2D2D;}
	.st3{fill:#FFFFFF;}
	.st4{stroke:#FFFFFF;stroke-miterlimit:10;}
	.st5{fill:#4C2D2D;stroke:#FFFFFF;stroke-miterlimit:10;}
</style>
<g id="Layer_2">
</g>
<g id="Layer_1">
	
		<image style="display:none;overflow:visible;enable-background:new    ;" width="113" height="24" xlink:href="C:\Users\samsaz\Desktop\bodyBuilding\fitarmy\src\assets\Logo.png"  transform="matrix(1 0 0 1 -2.419355e-02 0.1156)">
	</image>
	<g class="st0">
		<path class="st1" d="M3.9,1.8H13v4.1H9.3v3.9h3.3v3.9H9.3v8.7H3.9V1.8z"/>
		<path class="st1" d="M19.6,1.8v20.6h-5.4V1.8H19.6z"/>
		<path class="st1" d="M32.6,1.8v4.1h-3.2v16.5H24V5.9h-3.2V1.8H32.6z"/>
		<path class="st1" d="M42,1.8l3.1,20.6h-5.5l-0.3-3.7h-1.9l-0.3,3.7h-5.5l2.7-20.6C34.3,1.8,42,1.8,42,1.8z M39.2,15.1
			c-0.3-2.3-0.5-5.2-0.8-8.7c-0.5,3.9-0.9,6.8-1,8.7H39.2z"/>
		<path class="st1" d="M46,1.8h3.8c2.5,0,4.2,0.1,5.1,0.3s1.6,0.7,2.2,1.5S58,5.7,58,7.4c0,1.6-0.2,2.7-0.6,3.2
			c-0.4,0.6-1.2,0.9-2.4,1c1.1,0.3,1.8,0.6,2.1,1.1c0.4,0.4,0.6,0.8,0.7,1.2c0.1,0.4,0.1,1.4,0.1,3v5.4h-5v-6.8c0-1.1-0.1-1.8-0.3-2
			c-0.2-0.3-0.6-0.4-1.4-0.4v9.3H46V1.8z M51.4,5.3v4.6c0.6,0,1-0.1,1.3-0.2C52.9,9.5,53,9,53,8.1V6.9c0-0.7-0.1-1.1-0.3-1.3
			C52.4,5.4,52,5.3,51.4,5.3z"/>
		<path class="st1" d="M76.6,1.8v20.6h-4.7V8.5L70,22.4h-3.3l-2-13.6v13.6H60V1.8h7c0.2,1.2,0.4,2.7,0.6,4.4l0.8,5.2l1.2-9.6
			C69.6,1.8,76.6,1.8,76.6,1.8z"/>
		<path class="st1" d="M90.1,1.8L86.2,15v7.5h-5V15L77.5,1.8h4.9c0.8,4,1.2,6.7,1.3,8.1C84,7.7,84.5,5,85.2,1.8H90.1z"/>
	</g>
	<g>
		<circle class="st2" cx="12.2" cy="12.1" r="12"/>
	</g>
	<g>
		<path class="st3" d="M12.7,17.4H9.4l-0.6-1.9H5.1l-0.6,1.9H1.2L5.3,6.7h3.2L12.7,17.4z M7.8,12.9l-0.9-2.7L6,12.9H7.8z"/>
		<path class="st3" d="M22.6,17.4H20l-3.6-4.9v4.9h-3.1V6.7h2.6l3.6,4.9V6.7h3.1V17.4z"/>
		<path class="st4" d="M29.4,17.4h-3.2V9.5h-2.8V6.7h8.8v2.8h-2.8C29.4,9.5,29.4,17.4,29.4,17.4z"/>
		<path class="st4" d="M36.3,17.4h-3.2V6.7h3.2V17.4z"/>
		<path class="st4" d="M45.9,20.1c-0.6,0-1.1-0.1-1.5-0.2c-0.5-0.2-0.9-0.4-1.4-0.8s-1-0.9-1.5-1.6c-0.8-0.2-1.5-0.5-2.1-1.1
			c-0.6-0.5-1.1-1.1-1.4-1.9c-0.3-0.8-0.5-1.6-0.5-2.5c0-1.1,0.2-2,0.7-2.9s1.1-1.5,1.9-2s1.7-0.7,2.8-0.7s2,0.2,2.8,0.7
			s1.4,1.1,1.9,2c0.5,0.8,0.7,1.8,0.7,2.9c0,1.2-0.3,2.2-0.8,3.1c-0.6,0.9-1.3,1.6-2.2,2c0.1,0.2,0.3,0.3,0.4,0.3
			c0.1,0.1,0.3,0.1,0.5,0.1c0.5,0,0.9-0.2,1.3-0.7l1.4,1.8C48,19.7,47.1,20.1,45.9,20.1z M42.8,14.7c0.4,0,0.8-0.1,1.1-0.3
			s0.6-0.5,0.8-0.9s0.3-0.9,0.3-1.4s-0.1-1-0.3-1.4s-0.4-0.7-0.8-0.9c-0.3-0.2-0.7-0.3-1.1-0.3S42,9.6,41.7,9.8s-0.6,0.5-0.8,0.9
			s-0.3,0.9-0.3,1.4s0.1,1,0.3,1.4s0.4,0.7,0.8,0.9S42.4,14.7,42.8,14.7z"/>
		<path class="st4" d="M53.9,17.6c-1.5,0-2.6-0.4-3.4-1.3s-1.2-2.1-1.2-3.7V6.7h3.2v5.8c0,0.5,0.1,1,0.2,1.3s0.3,0.6,0.5,0.7
			c0.2,0.1,0.5,0.2,0.8,0.2s0.6-0.1,0.8-0.2c0.2-0.1,0.4-0.4,0.5-0.7s0.2-0.8,0.2-1.3V6.7h3.2v5.9c0,1.6-0.4,2.9-1.2,3.7
			S55.4,17.6,53.9,17.6z"/>
		<path class="st4" d="M68,17.4h-7.9V6.7h7.8v2.7h-4.6v1.3h4v2.6h-4v1.4H68V17.4z"/>
		<path class="st5" d="M78.5,17.6c-1,0-1.9-0.2-2.7-0.7s-1.4-1.1-1.9-2c-0.5-0.8-0.7-1.8-0.7-2.9s0.2-2.1,0.7-2.9
			c0.5-0.8,1.1-1.5,1.9-2s1.7-0.7,2.7-0.7c0.9,0,1.8,0.2,2.5,0.6s1.3,0.9,1.8,1.6l-2,2c-0.6-0.8-1.3-1.3-2.1-1.3
			c-0.7,0-1.2,0.2-1.6,0.7s-0.6,1.1-0.6,2c0,0.8,0.2,1.5,0.6,2s1,0.7,1.6,0.7c0.8,0,1.5-0.4,2.1-1.3l2,2c-0.5,0.7-1.1,1.2-1.8,1.6
			C80.2,17.5,79.4,17.6,78.5,17.6z"/>
		<path class="st5" d="M94.1,17.4h-3.3l-0.6-1.9h-3.6L86,17.4h-3.3l4.2-10.7H90L94.1,17.4z M89.3,12.9l-0.9-2.7l-0.9,2.7H89.3z"/>
		<path class="st5" d="M97.9,17.4h-3.2V6.7h7.8v2.7H98v1.8h4V14h-4v3.4H97.9z"/>
		<path class="st5" d="M111.4,17.4h-7.9V6.7h7.8v2.7h-4.6v1.3h4v2.6h-4v1.4h4.8v2.7H111.4z"/>
	</g>
</g>
</svg>
