<?xml version="1.0" encoding="utf-8"?>
<!-- Generator: Adobe Illustrator 24.1.2, SVG Export Plug-In . SVG Version: 6.00 Build 0)  -->
<svg version="1.1" id="Layer_1" xmlns="http://www.w3.org/2000/svg" xmlns:xlink="http://www.w3.org/1999/xlink" x="0px" y="0px"
	 viewBox="0 0 365.6 59.4" style="enable-background:new 0 0 365.6 59.4;" xml:space="preserve">
<style type="text/css">
	.st0{fill:none;}
	.st1{fill:#FDFDFF;}
	.st2{fill:#FFFFFF;}
	.st3{fill:#02000B;fill-opacity:0;}
	.st4{fill:#02000B;}
	.st5{opacity:0;fill:#02000B;}
	.st6{fill:#02000B;stroke:#FFFFFF;stroke-width:0.25;stroke-miterlimit:10;}
</style>
<rect x="-69.6" y="-158.5" class="st0" width="512" height="512"/>
<g id="Layer_2">
	<path class="st1" d="M154.8,29.7c0,8.1-5,15.3-15,15.3c-10.2,0-15.2-7.3-15-15.6c0-8.5,6.1-15.1,15-15.1
		C149.8,14.3,154.8,21.4,154.8,29.7z"/>
	<path class="st1" d="M5.4,2.2v52.2h221.5V2.2H5.4z M40.3,47.2l-3.9-8.6H15.6l-3.8,8.6H8.9l15.7-35h2.9l15.7,35H40.3z M75.1,47.2h-1
		L50.5,18.3v28.9h-2.7v-35h1.1l23.5,28.9V12.2h2.6V47.2z M108.2,14.6H95.5v32.5h-2.7V14.6H80.2v-2.4h28V14.6z M116,47.2h-2.7v-35
		h2.7V47.2z M156.1,47.7l-4.4-4.2c-2.8,2.5-6.9,4-11.9,4c-11.9,0-17.8-8.5-17.7-18.1c0.1-9.3,6-17.6,17.7-17.6
		c11.8,0,17.7,8.4,17.6,17.9c0,4.3-1.4,8.7-4.1,12l4.5,4.3L156.1,47.7z M189.5,33.9c0,18.3-26.8,18.4-26.8,0V12.2h2.6v21.7
		c0,15,21.5,15,21.5,0V12.2h2.7V33.9z M221.6,47.2h-24.7v-35H221v2.5h-21.5v13.6H220v2.4h-20.5v13.8h22.1V47.2z M16.6,36.1h18.8
		L26,14.8L16.6,36.1z"/>
	<rect x="4" y="5.9" class="st2" width="219.4" height="44.6"/>
</g>
<g transform="translate(47.134910583496094,105.8849983215332)">
	<g transform="matrix(1,0,0,1,0,0)">
		<g>
			<path class="st3" d="M107.7-76.2c0,8.1-5,15.3-15,15.3c-10.2,0-15.2-7.3-15-15.6c0-8.5,6.1-15.1,15-15.1
				C102.7-91.6,107.7-84.5,107.7-76.2z"/>
			<path class="st3" d="M-45.8-105v57.6h370V-105H-45.8z M-38.3-58.7l15.7-35h2.9l15.7,35h-2.9l-3.9-8.6h-20.9l-3.8,8.6H-38.3z
				 M0.6-58.7v-35h1.1l23.5,28.9v-28.9H28v35h-1L3.3-87.6v28.9H0.6z M33.1-91.3v-2.4h28v2.4H48.4v32.5h-2.7v-32.5H33.1z M66.2-58.7
				v-35h2.7v35H66.2z M110.7-60l-1.7,1.8l-4.4-4.2c-2.8,2.5-6.9,4-11.9,4c-11.9,0-17.8-8.5-17.7-18.1c0.1-9.3,6-17.6,17.7-17.6
				c11.8,0,17.7,8.4,17.6,17.9c0,4.3-1.4,8.7-4.1,12L110.7-60z M139.7-72v-21.7h2.7V-72c0,18.3-26.8,18.4-26.8,0v-21.7h2.6V-72
				C118.2-56.9,139.7-57,139.7-72z M174.5-58.7h-24.7v-35h24.1v2.5h-21.5v13.6h20.5v2.4h-20.5v13.8h22.1V-58.7z M-21.1-91.1
				l-9.4,21.3h18.8L-21.1-91.1z"/>
		</g>
		<g transform="translate(0,0)">
			<g>
				<g>
					<path class="st4" d="M107.7-76.2c0,8.1-5,15.3-15,15.3c-10.2,0-15.2-7.3-15-15.6c0-8.5,6.1-15.1,15-15.1
						C102.7-91.6,107.7-84.5,107.7-76.2z"/>
					<path class="st4" d="M-45.8-105v57.6H182V-105H-45.8z M-38.3-58.7l15.7-35h2.9l15.7,35h-2.9l-3.9-8.6h-20.9l-3.8,8.6H-38.3z
						 M0.6-58.7v-35h1.1l23.5,28.9v-28.9H28v35h-1L3.3-87.6v28.9H0.6z M33.1-91.3v-2.4h28v2.4H48.4v32.5h-2.7v-32.5H33.1z
						 M66.2-58.7v-35h2.7v35H66.2z M110.7-60l-1.7,1.8l-4.4-4.2c-2.8,2.5-6.9,4-11.9,4c-11.9,0-17.8-8.5-17.7-18.1
						c0.1-9.3,6-17.6,17.7-17.6c11.8,0,17.7,8.4,17.6,17.9c0,4.3-1.4,8.7-4.1,12L110.7-60z M139.7-72v-21.7h2.7V-72
						c0,18.3-26.8,18.4-26.8,0v-21.7h2.6V-72C118.2-56.9,139.7-57,139.7-72z M174.5-58.7h-24.7v-35h24.1v2.5h-21.5v13.6h20.5v2.4
						h-20.5v13.8h22.1V-58.7z M-21.1-91.1l-9.4,21.3h18.8L-21.1-91.1z"/>
				</g>
			</g>
			<g transform="translate(151.260009765625,0)">
				<g>
					<rect x="30.7" y="-105" class="st5" width="142.3" height="57.6"/>
				</g>
				<g transform="translate(5,7)">
					<rect x="33.3" y="-111" class="st6" width="127.2" height="3"/>
					<rect x="33.3" y="-58.4" class="st6" width="127.2" height="3"/>
					<g>
						<g transform="scale(1)">
							<path class="st6" d="M160.5-94.3v-6.4h-26.2v35h26.2v-6.5h-19.6v-7.9h18.9v-6.1h-18.9v-8H160.5z M129.8-94.3v-6.4h-25.1v34.9
								h6.6v-13h17.5v-6.1h-17.5v-9.5H129.8z M86.5-100.7h-7.2l-15.7,35h7.2l3-6.6h18.3l2.9,6.6h7.2L86.5-100.7z M76.4-78.5
								l6.5-14.9l6.5,14.9H76.4z M60.6-74.7c-2.3,2.3-5.8,3.5-8.8,3.5c-8.7,0-12-6-12.1-11.8c-0.1-5.8,3.6-12.2,12.1-12.2
								c3,0,6.1,1,8.4,3.3l4.4-4.3c-3.6-3.5-8.1-5.3-12.8-5.3c-12.7,0-18.6,9.3-18.6,18.5c0.1,9.1,5.6,18,18.6,18
								c5,0,9.7-1.6,13.3-5.2L60.6-74.7z"/>
						</g>
					</g>
				</g>
			</g>
		</g>
	</g>
</g>
</svg>
