<?xml version="1.0" encoding="utf-8"?>
<!-- Generator: Adobe Illustrator 24.1.2, SVG Export Plug-In . SVG Version: 6.00 Build 0)  -->
<svg version="1.1" id="Layer_1" xmlns="http://www.w3.org/2000/svg" xmlns:xlink="http://www.w3.org/1999/xlink" x="0px" y="0px"
	 viewBox="0 0 365.6 59.4" style="enable-background:new 0 0 365.6 59.4;" xml:space="preserve">
<style type="text/css">
	.st0{fill:none;}
	.st1{fill:url(#SVGID_1_);}
	.st2{fill:#FDFDFF;}
	.st3{fill:#FFFFFF;}
	.st4{fill:#02000B;fill-opacity:0;}
	.st5{fill:#02000B;}
	.st6{opacity:0;fill:#02000B;}
</style>
<rect x="-69.6" y="-158.5" class="st0" width="512" height="512"/>
<radialGradient id="SVGID_1_" cx="207.5165" cy="-11.8462" r="0.5" gradientUnits="userSpaceOnUse">
	<stop  offset="5.586592e-03" style="stop-color:#FFFFFF"/>
	<stop  offset="1" style="stop-color:#FFFFFF;stop-opacity:0"/>
</radialGradient>
<path class="st1" d="M355.4,0.9v56.7H231.1v0h0v-3h0V30.9c0-0.3,0-0.7,0-1c0-0.4,0-0.8,0-1.1V0.9h-7.4v56.7H1.4V0.9H355.4z"/>
<g id="Layer_2">
	<path class="st2" d="M154.8,29.7c0,8.1-5,15.3-15,15.3c-10.2,0-15.2-7.3-15-15.6c0-8.5,6.1-15.1,15-15.1
		C149.8,14.3,154.8,21.4,154.8,29.7z"/>
	<path class="st2" d="M26,14.8l-0.3,0.7l-9.1,20.6h18.8L26,14.8z M26,14.8l-0.3,0.7l-9.1,20.6h18.8L26,14.8z M194.8,30.8v13.8h2.1
		V30.8H194.8z M194.8,14.7v13.6h2.1V14.7H194.8z M26,14.8l-0.3,0.7l-9.1,20.6h18.8L26,14.8z M26,14.8l-0.3,0.7l-9.1,20.6h18.8
		L26,14.8z M194.8,44.6h2.1V30.8h-2.1V44.6z M194.8,14.7v13.6h2.1V14.7H194.8z M5.4,2.2v52.2h218.4V2.2H5.4z M196.9,12.2H221v2.5
		h-21.5v13.6H220v2.4h-20.5v13.8h22.1v2.6h-24.7V12.2z M166.1,43.5c-2.1-2.3-3.4-5.5-3.4-9.6V12.2h2.6v21.7c0,6.5,4,10.2,8.6,11.1
		c2.4,0.5,5,0.1,7.2-1c3.2-1.7,5.6-5,5.6-10V12.2h2.7v21.7c0,10.1-8.2,14.7-15.5,13.6C171,47.1,168.2,45.7,166.1,43.5z M151.7,43.5
		C151.7,43.5,151.7,43.5,151.7,43.5c-0.7,0.6-1.3,1.1-2,1.5c-2.6,1.6-6,2.6-9.8,2.6c-0.6,0-1.1,0-1.7-0.1
		c-7.1-0.5-11.9-4.2-14.3-9.4c0,0,0-0.1-0.1-0.1c-1.2-2.6-1.8-5.5-1.7-8.6c0-2.6,0.5-5.2,1.5-7.5c0,0,0-0.1,0.1-0.1
		c2.3-5.4,7.1-9.5,14.5-10c0.5,0,1.1-0.1,1.7-0.1c11.8,0,17.7,8.4,17.6,17.9c0,4.3-1.4,8.7-4.1,12l4.5,4.3l-1.7,1.8L151.7,43.5z
		 M116,12.2v35h-2.7v-35H116z M80.2,14.6v-2.4h28v2.4H95.5v32.5h-2.7V14.6H80.2z M50.5,18.3v28.9h-2.7v-35h1.1L70.8,39l1.7,2.1V12.2
		h2.6v35h-1l-0.7-0.9L50.5,18.3z M36.5,38.6H15.6l-3.8,8.6H8.9l15.7-35h2.9l15.7,35h-2.9L36.5,38.6z M25.7,15.4l-9.1,20.6h18.8
		L26,14.8L25.7,15.4z M194.8,14.7v13.6h2.1V14.7H194.8z M194.8,30.8v13.8h2.1V30.8H194.8z M26,14.8l-0.3,0.7l-9.1,20.6h18.8L26,14.8
		z M26,14.8l-0.3,0.7l-9.1,20.6h18.8L26,14.8z M26,14.8l-0.3,0.7l-9.1,20.6h18.8L26,14.8z M194.8,14.7v13.6h2.1V14.7H194.8z
		 M194.8,30.8v13.8h2.1V30.8H194.8z M26,14.8l-0.3,0.7l-9.1,20.6h18.8L26,14.8z"/>
	<rect x="4" y="5.9" class="st3" width="219.4" height="44.6"/>
</g>
<g transform="translate(47.134910583496094,105.8849983215332)">
	<g transform="matrix(1,0,0,1,0,0)">
		<g>
			<path class="st4" d="M104-76.2c0,8.1-4.9,15.3-14.6,15.3c-9.9,0-14.8-7.3-14.7-15.6c0-8.5,6-15.1,14.7-15.1
				C99.2-91.6,104-84.5,104-76.2z"/>
			<path class="st4" d="M-21.4-90.4l-0.3-0.7l-9.2,21.3h18.3L-21.4-90.4z M-21.4-90.4l-0.3-0.7l-9.2,21.3h18.3L-21.4-90.4z
				 M-21.4-90.4l-0.3-0.7l-9.2,21.3h18.3L-21.4-90.4z M-21.4-90.4l-0.3-0.7l-9.2,21.3h18.3L-21.4-90.4z M-45.8-105v57.6h222.4V-105
				H-45.8z M168.6-91.2h-21v13.6h20v2.4h-20v13.8h21.6v2.6h-24.1v-35h23.6V-91.2z M119-62.4c2.3,1.5,5.2,2,7.8,1.5
				c4.5-0.9,8.5-4.5,8.5-11.1v-21.7h2.6V-72c0,4.4-1.5,7.8-3.8,10c-2,2-4.6,3.2-7.2,3.5c-7.1,1.1-15.1-3.5-15.1-13.6v-21.7h2.6V-72
				C114.3-67.4,116.3-64.2,119-62.4z M101-62.4c-2.5,2.2-5.9,3.7-10,4c-0.5,0-1.1,0.1-1.6,0.1c-11.6,0-17.4-8.5-17.3-18.1
				c0.1-9.3,5.8-17.6,17.3-17.6c0.6,0,1.1,0,1.6,0.1c10.4,0.8,15.7,8.8,15.6,17.9c0,4.3-1.4,8.7-4,12l1.9,1.9L107-60l-1.7,1.8
				l-2.8-2.7L101-62.4z M66.1-93.7v35h-2.6v-35H66.1z M46.2-91.3v32.5h-2.6v-32.5H31.2v-2.4h27.3v2.4H46.2z M2.2-87.6v28.9h-2.6v-35
				h1.1l23,28.9v-28.9h2.6v35h-1L3.3-86.1L2.2-87.6z M-23.1-93.7h2.9l15.3,35h-2.8l-3.8-8.6h-20.4l-3.7,8.6h-2.8L-23.1-93.7z
				 M-12.5-69.8l-8.9-20.6l-0.3-0.7l-9.2,21.3H-12.5z M184-105v27.8c0,0.4,0,0.8,0,1.1c0,0.3,0,0.7,0,1v23.7h0v3h0v0.9h131.5V-105
				H184z M-21.4-90.4l-0.3-0.7l-9.2,21.3h18.3L-21.4-90.4z M-21.4-90.4l-0.3-0.7l-9.2,21.3h18.3L-21.4-90.4z M-21.4-90.4l-0.3-0.7
				l-9.2,21.3h18.3L-21.4-90.4z M-21.4-90.4l-0.3-0.7l-9.2,21.3h18.3L-21.4-90.4z"/>
		</g>
		<g transform="translate(0,0)">
			<g>
				<g>
					<path class="st5" d="M104-76.2c0,8.1-4.9,15.3-14.6,15.3c-9.9,0-14.8-7.3-14.7-15.6c0-8.5,6-15.1,14.7-15.1
						C99.2-91.6,104-84.5,104-76.2z"/>
					<path class="st5" d="M-21.4-90.4l-0.3-0.7l-9.2,21.3h18.3L-21.4-90.4z M-21.4-90.4l-0.3-0.7l-9.2,21.3h18.3L-21.4-90.4z
						 M-21.4-90.4l-0.3-0.7l-9.2,21.3h18.3L-21.4-90.4z M-21.4-90.4l-0.3-0.7l-9.2,21.3h18.3L-21.4-90.4z M-45.8-105v57.6h222.4
						V-105H-45.8z M168.6-91.2h-21v13.6h20v2.4h-20v13.8h21.6v2.6h-24.1v-35h23.6V-91.2z M119-62.4c2.3,1.5,5.2,2,7.8,1.5
						c4.5-0.9,8.5-4.5,8.5-11.1v-21.7h2.6V-72c0,4.4-1.5,7.8-3.8,10c-2,2-4.6,3.2-7.2,3.5c-7.1,1.1-15.1-3.5-15.1-13.6v-21.7h2.6
						V-72C114.3-67.4,116.3-64.2,119-62.4z M101-62.4c-2.5,2.2-5.9,3.7-10,4c-0.5,0-1.1,0.1-1.6,0.1c-11.6,0-17.4-8.5-17.3-18.1
						c0.1-9.3,5.8-17.6,17.3-17.6c0.6,0,1.1,0,1.6,0.1c10.4,0.8,15.7,8.8,15.6,17.9c0,4.3-1.4,8.7-4,12l1.9,1.9L107-60l-1.7,1.8
						l-2.8-2.7L101-62.4z M66.1-93.7v35h-2.6v-35H66.1z M46.2-91.3v32.5h-2.6v-32.5H31.2v-2.4h27.3v2.4H46.2z M2.2-87.6v28.9h-2.6
						v-35h1.1l23,28.9v-28.9h2.6v35h-1L3.3-86.1L2.2-87.6z M-23.1-93.7h2.9l15.3,35h-2.8l-3.8-8.6h-20.4l-3.7,8.6h-2.8L-23.1-93.7z
						 M-12.5-69.8l-8.9-20.6l-0.3-0.7l-9.2,21.3H-12.5z M-21.4-90.4l-0.3-0.7l-9.2,21.3h18.3L-21.4-90.4z M-21.4-90.4l-0.3-0.7
						l-9.2,21.3h18.3L-21.4-90.4z M-21.4-90.4l-0.3-0.7l-9.2,21.3h18.3L-21.4-90.4z M-21.4-90.4l-0.3-0.7l-9.2,21.3h18.3L-21.4-90.4
						z"/>
				</g>
			</g>
			<g transform="translate(151.260009765625,0)">
				<g>
					<path class="st6" d="M164.2-105v57.6H32.7v-0.9h0v-3h0V-75c0-0.3,0-0.7,0-1c0-0.4,0-0.8,0-1.1V-105H164.2z"/>
				</g>
				<g transform="translate(5,7)">
					<rect x="27.7" y="-112" class="st5" width="124.3" height="3"/>
					<rect x="27.7" y="-58.3" class="st5" width="124.3" height="3"/>
					<g>
						<g transform="scale(1)">
							<path class="st5" d="M151.8-94.3v-6.4h-25.6v35h25.6v-6.5h-19.2v-7.9h18.5v-6.1h-18.5v-8H151.8z M121.9-94.3v-6.4H97.4v34.9
								h6.4v-13H121v-6.1h-17.1v-9.5H121.9z M79.7-100.7h-7l-15.3,35h7l2.9-6.6h17.9l2.9,6.6h7L79.7-100.7z M69.8-78.5l6.3-14.9
								l6.4,14.9H69.8z M54.4-74.7c-2.2,2.3-5.6,3.5-8.6,3.5c-8.5,0-11.7-6-11.8-11.8c-0.1-5.8,3.5-12.2,11.8-12.2c3,0,6,1,8.2,3.3
								l4.3-4.3c-3.5-3.5-7.9-5.3-12.5-5.3c-11.8,0-17.7,8.5-18.1,17.3c0,0.4,0,0.8,0,1.1c0,0.3,0,0.7,0,1c0.4,8.7,5.9,17,18.1,17
								c4.9,0,9.5-1.6,13-5.2L54.4-74.7z"/>
						</g>
					</g>
				</g>
			</g>
		</g>
	</g>
</g>
<polygon class="st5" points="231.1,0.9 231.1,0.9 223.7,0.9 223.7,58.5 223.7,58.5 223.7,0.9 "/>
<path class="st5" d="M231.1,29.9c0-0.4,0-0.8,0-1.1v2.2C231.1,30.6,231.1,30.3,231.1,29.9z"/>
<rect x="231.1" y="54.6" class="st5" width="0" height="3"/>
</svg>
